<svg width="386" height="1526" viewBox="0 0 386 1526" fill="none" xmlns="http://www.w3.org/2000/svg">
<g opacity="0.3" clip-path="url(#clip0_325_4514)">
<mask id="mask0_325_4514" style="mask-type:luminance" maskUnits="userSpaceOnUse" x="-466" y="14" width="853" height="1512">
<path d="M-276.036 1525.05C-272.966 1444.24 -251.679 1349.92 -204.909 1239.57C-63.4597 905.84 -23.7061 706.853 -74.6087 596.754C-123.764 490.431 -257.199 467.028 -465 485.318V486.911C-257.832 468.656 -124.859 491.837 -76.0505 597.418C-25.3534 707.081 -65.1102 905.669 -206.374 1238.96C-253.233 1349.53 -274.581 1444.06 -277.67 1525.05H-276.036ZM-259.964 1525.05C-260.866 1438.71 -240.296 1336.05 -188.449 1213.72C-46.9995 879.984 -7.24591 681.001 -58.1485 570.901C-108.589 461.791 -247.775 440.003 -465 460.985V462.581C-248.404 441.644 -109.68 463.213 -59.5903 571.566C-8.89319 681.229 -48.65 879.817 -189.913 1213.11C-241.85 1335.65 -262.485 1438.52 -261.608 1525.05H-259.967L-259.964 1525.05ZM-242.569 1525.05C-248.279 1433.55 -229.108 1322.64 -171.986 1187.87C-30.5361 854.131 9.2175 655.145 -41.6851 545.045C-92.6616 434.772 -234.281 413.685 -455.508 435.809L-465 436.75V438.346L-455.354 437.389C-234.843 415.339 -93.7405 436.224 -43.1237 545.71C7.57343 655.373 -32.1834 853.961 -173.447 1187.25C-230.659 1322.24 -249.894 1433.36 -244.22 1525.05H-242.569ZM-223.759 1525.05C-235.142 1428.81 -218.146 1309.75 -155.526 1162.01C-14.0759 828.272 25.6777 629.289 -25.2249 519.189C-76.2014 408.916 -217.821 387.829 -439.048 409.954C-447.891 410.837 -456.529 411.684 -465 412.5V414.093C-456.481 413.274 -447.788 412.42 -438.894 411.533C-218.383 389.483 -77.2803 410.368 -26.6635 519.854C24.0336 629.517 -15.7232 828.105 -156.987 1161.4C-219.69 1309.34 -236.764 1428.61 -225.425 1525.05H-223.759ZM-203.48 1525.05C-221.427 1424.52 -207.411 1297.41 -139.065 1136.15C2.38745 802.419 42.1378 603.433 -8.76474 493.333C-59.7444 383.06 -201.361 361.973 -422.588 384.098C-437.246 385.562 -451.359 386.93 -465.003 388.195V389.788C-451.308 388.523 -437.147 387.148 -422.433 385.678C-201.923 363.627 -60.8202 384.512 -10.2034 493.998C40.4937 603.661 0.736938 802.249 -140.526 1135.54C-208.955 1297 -223.062 1424.31 -205.176 1525.05H-203.484H-203.48ZM-181.584 1525.05C-207.029 1420.71 -196.946 1285.7 -122.602 1110.3C18.8476 776.56 58.6012 577.577 7.69861 467.478C-43.2811 357.205 -184.898 336.117 -406.124 358.242C-426.762 360.307 -446.366 362.185 -465 363.829V365.422C-446.315 363.771 -426.659 361.886 -405.967 359.818C-185.456 337.768 -44.3535 358.653 6.26004 468.139C56.9572 577.802 17.2003 776.39 -124.063 1109.68C-198.481 1285.26 -208.673 1420.49 -183.308 1525.04H-181.584V1525.05ZM-157.918 1525.05C-191.824 1417.45 -186.779 1274.7 -106.139 1084.44C35.3078 750.707 75.0646 551.721 24.162 441.622C-26.8145 331.349 -168.434 310.261 -389.661 332.386C-416.48 335.067 -441.543 337.44 -465 339.383V340.972C-441.488 339.023 -416.374 336.647 -389.507 333.963C-168.996 311.912 -27.8934 332.797 22.7234 442.283C73.4205 551.946 33.6637 750.534 -107.6 1083.83C-188.308 1274.24 -193.487 1417.21 -159.678 1525.04H-157.918V1525.05ZM-132.306 1525.05C-175.679 1414.76 -176.957 1264.51 -89.6785 1058.59C51.7712 724.852 91.5248 525.865 40.6222 415.766C-10.3575 305.493 -151.974 284.405 -373.201 306.53C-406.391 309.847 -436.919 312.699 -465 314.84V316.433C-436.864 314.285 -406.282 311.433 -373.043 308.11C-152.533 286.059 -11.43 306.944 39.1836 416.43C89.8807 526.093 50.1239 724.681 -91.1395 1057.97C-178.472 1264.03 -177.368 1414.51 -134.111 1525.05H-132.303H-132.306ZM-104.568 1525.05C-158.438 1412.74 -167.519 1255.23 -73.2151 1032.73C68.2346 698.996 107.988 500.013 57.0856 389.913C6.10913 279.64 -135.511 258.553 -356.737 280.677C-396.529 284.656 -432.497 287.957 -465 290.176V291.768C-432.439 289.546 -396.42 286.239 -356.583 282.257C-136.073 260.206 5.03018 281.092 55.647 390.578C106.344 500.24 66.5873 698.829 -74.6761 1032.12C-169.025 1254.73 -160.15 1412.47 -106.428 1525.05H-104.568ZM-74.506 1525.05C-139.91 1411.44 -158.528 1246.99 -56.7549 1006.88C84.6948 673.143 124.448 474.157 73.5458 364.057C22.5661 253.784 -119.051 232.697 -340.277 254.821C-386.906 259.484 -428.313 263.228 -465 265.37V266.966C-428.249 264.814 -386.787 261.067 -340.12 256.398C-119.609 234.347 21.4936 255.232 72.1104 364.719C122.807 474.381 83.0507 672.97 -58.2127 1006.26C-160.015 1246.46 -141.65 1411.14 -76.4197 1525.04H-74.5027L-74.506 1525.05ZM-41.7879 1525.05C-119.779 1410.97 -150.063 1240.01 -40.2915 981.021C101.161 647.284 140.912 448.301 90.0092 338.201C39.0327 227.928 -102.587 206.841 -323.814 228.965C-377.561 234.338 -424.357 238.486 -465 240.378V241.971C-424.286 240.073 -377.443 235.921 -323.66 230.545C-103.149 208.495 37.9538 229.38 88.5706 338.866C139.268 448.529 99.5108 647.117 -41.7526 980.408C-151.534 1239.42 -121.594 1410.65 -43.8109 1525.05H-41.7879ZM-6.1413 1525.05C-97.7255 1411.45 -142.219 1234.49 -23.8313 955.166C117.618 621.431 157.372 422.445 106.469 312.345C55.4897 202.072 -86.127 180.985 -307.354 203.11C-368.519 209.227 -420.674 213.751 -465.003 215.167V216.763C-420.597 215.334 -368.384 210.803 -307.199 204.686C-86.6889 182.636 54.4139 203.521 105.031 313.007C155.728 422.67 115.971 621.258 -25.2924 954.549C-143.67 1233.85 -99.5944 1411.08 -8.24454 1525.04H-6.1445L-6.1413 1525.05ZM32.9605 1525.05C-73.1733 1413.03 -135.151 1230.8 -7.36792 929.31C134.082 595.572 173.835 396.589 122.933 286.489C71.9563 176.217 -69.6635 155.129 -290.89 177.254C-359.797 184.145 -417.28 189.019 -465 189.697V191.299C-417.193 190.602 -359.65 185.721 -290.736 178.83C-70.2287 156.78 70.8773 177.665 121.491 287.151C172.188 396.814 132.431 595.402 -8.83221 928.693C-136.57 1230.08 -75.1514 1412.61 30.7159 1525.04H32.9572L32.9605 1525.05ZM75.9958 1525.05C-45.4325 1415.9 -129.04 1229.36 9.09225 903.454C150.542 569.719 190.295 370.733 139.393 260.633C88.4132 150.361 -53.2034 129.273 -274.43 151.398C-351.455 159.098 -414.216 164.287 -465.003 163.902V165.514C-414.113 165.874 -351.291 160.675 -274.276 152.974C-53.7653 130.924 87.3375 151.809 137.951 261.295C188.648 370.958 148.891 569.546 7.62799 902.837C-130.399 1228.5 -47.5807 1415.42 73.5425 1525.04H75.9926L75.9958 1525.05ZM123.697 1525.05C-13.3887 1420.35 -124.163 1230.84 25.5557 877.601C167.005 543.867 206.759 344.88 155.856 234.781C104.88 124.508 -36.74 103.421 -257.967 125.545C-343.533 134.103 -411.506 139.555 -465 137.709V139.334C-411.387 141.138 -343.35 135.676 -257.809 127.122C-37.3019 105.071 103.804 125.956 154.418 235.442C205.115 345.105 165.358 543.693 24.0946 876.985C-125.463 1229.85 -15.7329 1419.79 121.061 1525.04H123.7L123.697 1525.05ZM176.985 1525.05C24.7015 1426.76 -120.942 1236.22 42.0158 851.745C183.465 518.008 223.219 319.024 172.316 208.925C121.337 98.652 -20.2798 77.5647 -241.506 99.6892C-336.106 109.149 -409.2 114.82 -465 111.021V112.656C-409.062 116.4 -335.9 110.723 -241.349 101.269C-20.8386 79.2184 120.264 100.103 170.881 209.59C221.578 319.252 181.821 517.841 40.558 851.132C-122.149 1235.02 22.0202 1426.1 174.067 1525.05H176.989H176.985ZM237.248 1525.05C71.9916 1435.72 -120.136 1247.3 58.4792 825.889C199.929 492.155 239.682 293.169 188.78 183.069C137.803 72.7961 -3.81644 51.7088 -225.043 73.8333C-329.247 84.2534 -407.367 90.0784 -465 83.7107V85.3645C-407.197 91.655 -329.012 85.8236 -224.889 75.4132C-4.37836 53.3625 136.724 74.2476 187.341 183.734C238.038 293.397 198.282 491.985 57.0182 825.276C-121.189 1245.73 68.7259 1434.9 233.925 1525.05H237.248ZM306.262 1525.05C134.724 1448.17 -123.138 1267.38 74.9394 800.033C216.389 466.296 256.143 267.313 205.24 157.213C154.264 46.9435 12.6437 25.8561 -208.58 47.9807C-323.056 59.4283 -406.066 65.3335 -465 55.6135V57.3154C-405.867 66.9198 -322.77 60.9921 -208.425 49.5573C12.085 27.5066 153.188 48.3917 203.805 157.878C254.502 267.541 214.745 466.129 73.4816 799.42C-123.925 1265.18 130.373 1447.13 302.421 1525.05H306.262ZM-465 28.213C-405.158 42.1396 -317.363 36.2408 -191.962 23.7014C28.5452 1.6507 169.651 22.5358 220.265 132.022C270.962 241.685 231.205 440.273 89.9417 773.564C-115.566 1258.43 168.482 1435.75 339.625 1508.29C354.595 1514.63 368.692 1520.17 381.517 1525.05H386C372.144 1519.82 356.708 1513.81 340.238 1506.83C169.622 1434.51 -113.543 1257.72 91.4028 774.177C232.852 440.443 272.606 241.457 221.703 131.357C170.727 21.0876 29.1071 0.000185013 -192.119 22.1248C-317.693 34.6802 -405.405 40.5694 -465 26.479V28.213Z" fill="white"/>
</mask>
<g mask="url(#mask0_325_4514)">
<path d="M386 0H-465V1525.05H386V0Z" fill="url(#paint0_linear_325_4514)"/>
</g>
</g>
<defs>
<linearGradient id="paint0_linear_325_4514" x1="-465" y1="762.523" x2="386" y2="762.523" gradientUnits="userSpaceOnUse">
<stop stop-color="#D0F2DF" stop-opacity="0.4"/>
<stop offset="0.47" stop-color="#41A7A5" stop-opacity="0.7"/>
<stop offset="1" stop-color="#41A7A5"/>
</linearGradient>
<clipPath id="clip0_325_4514">
<rect width="851" height="1525.05" fill="white" transform="translate(-465)"/>
</clipPath>
</defs>
</svg>
