<svg width="22" height="22" viewBox="0 0 22 22" fill="none" xmlns="http://www.w3.org/2000/svg">
<mask id="mask0_319_901" style="mask-type:alpha" maskUnits="userSpaceOnUse" x="0" y="0" width="22" height="22">
<circle cx="11.25" cy="11" r="10.5" fill="#D9D9D9"/>
</mask>
<g mask="url(#mask0_319_901)">
<mask id="mask1_319_901" style="mask-type:luminance" maskUnits="userSpaceOnUse" x="-3" y="0" width="28" height="22">
<rect x="-2.25" y="0.5" width="27" height="21" fill="white"/>
</mask>
<g mask="url(#mask1_319_901)">
<path fill-rule="evenodd" clip-rule="evenodd" d="M-2.25 0.5V21.5H24.75V0.5H-2.25Z" fill="#2E42A5"/>
<mask id="mask2_319_901" style="mask-type:luminance" maskUnits="userSpaceOnUse" x="-3" y="0" width="28" height="22">
<path fill-rule="evenodd" clip-rule="evenodd" d="M-2.25 0.5V21.5H24.75V0.5H-2.25Z" fill="white"/>
</mask>
<g mask="url(#mask2_319_901)">
<mask id="mask3_319_901" style="mask-type:luminance" maskUnits="userSpaceOnUse" x="-3" y="0" width="28" height="22">
<rect x="-2.25" y="0.5" width="27" height="21" fill="white"/>
</mask>
<g mask="url(#mask3_319_901)">
<path d="M-5.2561 19.9997L0.685322 22.6055L24.8851 3.33305L28.0191 -0.539246L21.6656 -1.41018L11.7951 6.89486L3.85031 12.4905L-5.2561 19.9997Z" fill="white"/>
<path d="M-4.44287 21.8252L-1.41599 23.3374L26.8935 -0.89917H22.6434L-4.44287 21.8252Z" fill="#F50100"/>
<path d="M27.7561 19.9997L21.8147 22.6055L-2.38512 3.33305L-5.51908 -0.539246L0.834417 -1.41018L10.7049 6.89486L18.6497 12.4905L27.7561 19.9997Z" fill="white"/>
<path d="M27.5537 21.3101L24.5268 22.8223L12.4723 12.4453L8.89844 11.2859L-5.8203 -0.52586H-1.57021L13.1403 11.0056L17.0477 12.3958L27.5537 21.3101Z" fill="#F50100"/>
<mask id="path-10-inside-1_319_901" fill="white">
<path fill-rule="evenodd" clip-rule="evenodd" d="M14.4375 -1.24951H8.0625V7.50073H-3.91406V14.5007H8.0625V23.2505H14.4375V14.5007H26.4609V7.50073H14.4375V-1.24951Z"/>
</mask>
<path fill-rule="evenodd" clip-rule="evenodd" d="M14.4375 -1.24951H8.0625V7.50073H-3.91406V14.5007H8.0625V23.2505H14.4375V14.5007H26.4609V7.50073H14.4375V-1.24951Z" fill="#F50100"/>
<path d="M8.0625 -1.24951V-2.74951H6.5625V-1.24951H8.0625ZM14.4375 -1.24951H15.9375V-2.74951H14.4375V-1.24951ZM8.0625 7.50073V9.00073H9.5625V7.50073H8.0625ZM-3.91406 7.50073V6.00073H-5.41406V7.50073H-3.91406ZM-3.91406 14.5007H-5.41406V16.0007H-3.91406V14.5007ZM8.0625 14.5007H9.5625V13.0007H8.0625V14.5007ZM8.0625 23.2505H6.5625V24.7505H8.0625V23.2505ZM14.4375 23.2505V24.7505H15.9375V23.2505H14.4375ZM14.4375 14.5007V13.0007H12.9375V14.5007H14.4375ZM26.4609 14.5007V16.0007H27.9609V14.5007H26.4609ZM26.4609 7.50073H27.9609V6.00073H26.4609V7.50073ZM14.4375 7.50073H12.9375V9.00073H14.4375V7.50073ZM8.0625 0.250488H14.4375V-2.74951H8.0625V0.250488ZM9.5625 7.50073V-1.24951H6.5625V7.50073H9.5625ZM-3.91406 9.00073H8.0625V6.00073H-3.91406V9.00073ZM-2.41406 14.5007V7.50073H-5.41406V14.5007H-2.41406ZM8.0625 13.0007H-3.91406V16.0007H8.0625V13.0007ZM9.5625 23.2505V14.5007H6.5625V23.2505H9.5625ZM14.4375 21.7505H8.0625V24.7505H14.4375V21.7505ZM12.9375 14.5007V23.2505H15.9375V14.5007H12.9375ZM26.4609 13.0007H14.4375V16.0007H26.4609V13.0007ZM24.9609 7.50073V14.5007H27.9609V7.50073H24.9609ZM14.4375 9.00073H26.4609V6.00073H14.4375V9.00073ZM12.9375 -1.24951V7.50073H15.9375V-1.24951H12.9375Z" fill="white" mask="url(#path-10-inside-1_319_901)"/>
</g>
</g>
</g>
</g>
</svg>
