<svg width="34" height="34" viewBox="0 0 34 34" fill="none" xmlns="http://www.w3.org/2000/svg">
<path d="M1 17C1 8.16344 8.16344 1 17 1C25.8366 1 33 8.16344 33 17C33 25.8366 25.8366 33 17 33C8.16344 33 1 25.8366 1 17Z" fill="#06C755" stroke="white" stroke-width="0.5"/>
<path d="M17.2666 8.4668C11.8266 8.4668 7.40002 12.0328 7.40002 16.416C7.40002 20.3455 10.9102 23.6363 15.6517 24.2586C15.973 24.3274 16.4103 24.469 16.521 24.7416C16.6205 24.9893 16.5861 25.3773 16.5528 25.6274C16.5528 25.6274 16.437 26.3186 16.412 26.4658C16.3691 26.7135 16.2138 27.4344 17.2666 26.9939C18.3198 26.5533 22.9489 23.6722 25.0189 21.3067C26.4485 19.75 27.1334 18.1702 27.1334 16.416C27.1334 12.0328 22.7074 8.4668 17.2666 8.4668Z" fill="white"/>
<path d="M14.524 14.3335C14.4188 14.3335 14.3334 14.4217 14.3334 14.5301V18.9369C14.3334 19.0455 14.4188 19.1335 14.524 19.1335H15.2096C15.3148 19.1335 15.4 19.0455 15.4 18.9369V14.5301C15.4 14.4217 15.3148 14.3335 15.2096 14.3335H14.524Z" fill="#06C755"/>
<path d="M19.9996 14.3335H19.2778C19.1671 14.3335 19.0773 14.4217 19.0773 14.5301V17.1482L17.0225 14.4209C17.0178 14.414 17.0124 14.4074 17.0069 14.401L17.0055 14.3998C17.0016 14.3953 16.9976 14.3915 16.9935 14.3876C16.9923 14.3864 16.9911 14.3855 16.9898 14.3843C16.9864 14.3812 16.9829 14.3783 16.9791 14.3756C16.9775 14.374 16.9758 14.3729 16.974 14.3715C16.9704 14.3692 16.9671 14.3666 16.9635 14.3645C16.9615 14.3632 16.9596 14.362 16.9574 14.361C16.9539 14.3589 16.9503 14.3568 16.9468 14.355C16.9446 14.354 16.9426 14.3529 16.9404 14.3521C16.9367 14.3504 16.9329 14.3486 16.929 14.3473C16.9266 14.3465 16.9247 14.3457 16.9225 14.3449C16.9185 14.3436 16.9146 14.3422 16.9105 14.3413C16.9083 14.3405 16.9059 14.3401 16.9035 14.3393C16.8996 14.3385 16.8959 14.3376 16.8921 14.3368C16.8893 14.3364 16.8864 14.336 16.8836 14.3358C16.8801 14.335 16.8765 14.3349 16.873 14.3345C16.8696 14.3341 16.8663 14.3341 16.8627 14.3339C16.8601 14.3339 16.8582 14.3335 16.8556 14.3335H16.134C16.0233 14.3335 15.9333 14.4217 15.9333 14.5301V18.9369C15.9333 19.0455 16.0233 19.1335 16.134 19.1335H16.8556C16.9665 19.1335 17.0562 19.0455 17.0562 18.9369V16.3196L19.1136 19.0503C19.1278 19.0701 19.1454 19.0862 19.1645 19.099C19.1651 19.0994 19.1659 19.1 19.1665 19.1005C19.1706 19.1031 19.1748 19.1056 19.1789 19.1079C19.1809 19.1091 19.1827 19.1098 19.1846 19.1108C19.1876 19.1126 19.191 19.1141 19.1941 19.1155C19.1975 19.1168 19.2004 19.1182 19.204 19.1195C19.2059 19.1203 19.2079 19.1211 19.2099 19.1217C19.2146 19.1234 19.219 19.1248 19.2235 19.1261C19.2245 19.1261 19.2255 19.1265 19.2265 19.1267C19.2428 19.131 19.26 19.1335 19.2778 19.1335H19.9996C20.1105 19.1335 20.2 19.0455 20.2 18.9369V14.5301C20.2 14.4217 20.1105 14.3335 19.9996 14.3335Z" fill="#06C755"/>
<path d="M13.6051 18.03H11.6939V14.5305C11.6939 14.4217 11.6065 14.3335 11.4988 14.3335H10.7953C10.6874 14.3335 10.6 14.4217 10.6 14.5305V18.9363V18.9367C10.6 18.9896 10.6209 19.0375 10.6546 19.0728C10.6553 19.0738 10.6561 19.0748 10.6573 19.0757C10.6582 19.0767 10.6592 19.0775 10.6601 19.0784C10.6953 19.1126 10.7426 19.1335 10.7951 19.1335H13.6051C13.7129 19.1335 13.8 19.0451 13.8 18.9363V18.227C13.8 18.1182 13.7129 18.03 13.6051 18.03Z" fill="#06C755"/>
<path d="M23.7384 15.437C23.8462 15.437 23.9333 15.349 23.9333 15.24V14.5307C23.9333 14.4219 23.8462 14.3335 23.7384 14.3335H20.9286H20.9282C20.8755 14.3335 20.828 14.3548 20.7929 14.3891C20.7921 14.3899 20.7911 14.3905 20.7906 14.3913C20.7894 14.3924 20.7884 14.3936 20.7875 14.3948C20.754 14.43 20.7333 14.4777 20.7333 14.5305V14.5307V18.9365V18.9367C20.7333 18.9896 20.7542 19.0375 20.7879 19.0728C20.7886 19.0738 20.7896 19.0749 20.7906 19.0757C20.7913 19.0767 20.7925 19.0777 20.7934 19.0784C20.8284 19.1124 20.8759 19.1335 20.9282 19.1335H23.7384C23.8462 19.1335 23.9333 19.0451 23.9333 18.9365V18.227C23.9333 18.1184 23.8462 18.03 23.7384 18.03H21.8274V17.2851H23.7384C23.8462 17.2851 23.9333 17.1969 23.9333 17.0882V16.3788C23.9333 16.2701 23.8462 16.1816 23.7384 16.1816H21.8274V15.437H23.7384Z" fill="#06C755"/>
</svg>
